<svg xmlns="http://www.w3.org/2000/svg" xmlns:xlink="http://www.w3.org/1999/xlink" version="1.1" width="60" height="60" viewBox="0 0 60 60">

<g class="currentLayer" style=""><title>Layer 1</title><path d="M16.3814182924656,47.39372337095072 q0,1.8015790529251103 -1.3299405622482303,3.0766096386909494 t-3.209105725288392,1.275030585765839 q-1.8428527927398684,0 -3.1909495401382455,-1.2924371466636662 t-1.348096747398377,-3.0592030777931223 q0,-1.8015790529251103 1.3299405622482303,-3.0766096386909494 t3.209105725288392,-1.275030585765839 t3.209105725288392,1.275030585765839 t1.3299405622482303,3.0766096386909494 zM34.042847397270585,54.39551249210169 q0,1.8015790529251103 -1.3299405622482303,3.0766096386909494 t-3.209105725288392,1.275030585765839 t-3.209105725288392,-1.275030585765839 t-1.3299405622482303,-3.0766096386909494 t1.3299405622482303,-3.0766096386909494 t3.209105725288392,-1.275030585765839 t3.209105725288392,1.275030585765839 t1.3299405622482303,3.0766096386909494 zM9.078092815819174,30.46149125758936 q0,1.8015790529251103 -1.3299405622482303,3.0766096386909494 t-3.209105725288392,1.275030585765839 t-3.209105725288392,-1.275030585765839 t-1.3299405622482303,-3.0766096386909494 t1.3299405622482303,-3.0766096386909494 t3.209105725288392,-1.275030585765839 t3.209105725288392,1.275030585765839 t1.3299405622482303,3.0766096386909494 zM51.70427650207559,47.39372337095072 q0,1.7667659311294557 -1.348096747398377,3.0592030777931223 t-3.1909495401382455,1.2924371466636662 q-1.8791651630401616,0 -3.209105725288392,-1.275030585765839 t-1.3299405622482303,-3.0766096386909494 t1.3299405622482303,-3.0766096386909494 t3.209105725288392,-1.275030585765839 t3.209105725288392,1.275030585765839 t1.3299405622482303,3.0766096386909494 zM17.516179864349755,13.529259144228 q0,2.2454463558197024 -1.6658299875259404,3.842498318195344 t-4.007977871894838,1.5970519623756414 t-4.007977871894838,-1.5970519623756414 t-1.6658299875259404,-3.842498318195344 t1.6658299875259404,-3.842498318195344 t4.007977871894838,-1.5970519623756414 t4.007977871894838,1.5970519623756414 t1.6658299875259404,3.842498318195344 zM59.00760197872201,30.46149125758936 q0,1.8015790529251103 -1.3299405622482303,3.0766096386909494 t-3.209105725288392,1.275030585765839 t-3.209105725288392,-1.275030585765839 t-1.3299405622482303,-3.0766096386909494 t1.3299405622482303,-3.0766096386909494 t3.209105725288392,-1.275030585765839 t3.209105725288392,1.275030585765839 t1.3299405622482303,3.0766096386909494 zM36.3123705410389,6.527470023077029 q0,2.719775140285493 -1.9881022739410406,4.621441918373108 t-4.8204671573638915,1.9060184183120732 t-4.8204671573638915,-1.9060184183120732 t-1.9881022739410406,-4.621441918373108 t1.9881022739410406,-4.621441918373108 t4.8204671573638915,-1.9060184183120732 t4.8204671573638915,1.9060184183120732 t1.9881022739410406,4.621441918373108 zM55.10856121772805,13.529259144228 q0,3.163642443180085 -2.3421478843688965,5.387330597877503 t-5.60118311882019,2.228039794921875 q-3.2998866510391243,0 -5.619339303970337,-2.228039794921875 t-2.32399169921875,-5.387330597877503 q0,-3.1288293213844307 2.32399169921875,-5.3699240369796755 t5.619339303970337,-2.2454463558197024 q3.2635742807388315,0 5.60118311882019,2.2454463558197024 t2.3421478843688965,5.3699240369796755 z" id="svg_1" class=""/></g></svg>